# Blender v2.83.3 OBJ File: 'ground_and_tree_2.blend'
# www.blender.org
o Icosphere.001_Icosphere.002
v -0.047181 0.697428 0.004620
v 0.030308 0.520996 0.085242
v 0.030308 0.764818 0.135071
v 0.030308 0.915511 0.004620
v 0.030308 0.764818 -0.125831
v 0.030308 0.520996 -0.076002
v 0.155691 0.630038 0.135071
v 0.155690 0.873861 0.085242
v 0.155690 0.873861 -0.076002
v 0.155691 0.630038 -0.125831
v 0.155690 0.479346 0.004620
v 0.233180 0.697428 0.004620
v -0.026246 0.737039 0.081297
v -0.026246 0.593725 0.052008
v 0.019301 0.633335 0.128686
v 0.019301 0.490020 0.004620
v -0.026246 0.593725 -0.042768
v -0.026246 0.825614 0.004620
v 0.019301 0.865225 0.081297
v -0.026246 0.737039 -0.072056
v 0.019301 0.865225 -0.072057
v 0.019301 0.633335 -0.119445
v 0.092999 0.465538 0.052009
v 0.092999 0.465538 -0.042768
v 0.092999 0.697428 0.157975
v 0.092999 0.554112 0.128686
v 0.092999 0.929319 0.052009
v 0.092999 0.840744 0.128686
v 0.092999 0.840744 -0.119446
v 0.092999 0.929319 -0.042768
v 0.092999 0.554112 -0.119446
v 0.092999 0.697428 -0.148734
v 0.166697 0.529631 0.081297
v 0.166697 0.761522 0.128686
v 0.166697 0.904836 0.004620
v 0.166697 0.761522 -0.119445
v 0.166697 0.529631 -0.072057
v 0.212244 0.657818 0.081297
v 0.212244 0.569243 0.004620
v 0.212244 0.801132 0.052008
v 0.212244 0.801132 -0.042768
v 0.212244 0.657818 -0.072056
v -0.037000 0.000276 0.041620
v -0.021020 0.074276 0.025640
v -0.037000 0.000276 -0.032380
v -0.021020 0.074276 -0.016400
v 0.037000 0.000276 0.041620
v 0.021020 0.074276 0.025640
v 0.037000 0.000276 -0.032380
v 0.021020 0.074276 -0.016400
v -0.020279 0.131446 0.025640
v -0.020279 0.131446 -0.016400
v 0.020279 0.120383 -0.016400
v 0.020279 0.120383 0.025640
v -0.006415 0.180197 0.025640
v -0.006415 0.180197 -0.016400
v 0.030584 0.160237 -0.016400
v 0.030584 0.160237 0.025640
v 0.013189 0.216534 0.025640
v 0.013189 0.216534 -0.016400
v 0.050187 0.196573 -0.016400
v 0.050187 0.196573 0.025640
v 0.048641 0.264793 0.025640
v 0.048641 0.264793 -0.016400
v 0.085639 0.244832 -0.016400
v 0.085639 0.244832 0.025640
v 0.069554 0.301191 0.025640
v 0.069554 0.301191 -0.016400
v 0.111012 0.294228 -0.016400
v 0.111012 0.294228 0.025640
v 0.078656 0.354390 0.025640
v 0.078656 0.354390 -0.016400
v 0.120660 0.352682 -0.016400
v 0.120660 0.352682 0.025640
v 0.080731 0.404105 0.025640
v 0.080731 0.404105 -0.016400
v 0.122750 0.405404 -0.016400
v 0.122750 0.405404 0.025640
v 0.079224 0.452851 0.025640
v 0.079224 0.452851 -0.016400
v 0.121243 0.454150 -0.016400
v 0.121243 0.454150 0.025640
v -0.041311 0.200253 0.025640
v -0.041311 0.200253 -0.016400
v -0.011127 0.228423 0.025640
v -0.011127 0.228423 -0.016400
v -0.077434 0.240296 0.025640
v -0.077434 0.240296 -0.016400
v -0.040302 0.258349 0.025640
v -0.040302 0.258349 -0.016400
v -0.099727 0.287095 0.025640
v -0.099727 0.287095 -0.016400
v -0.059745 0.297396 0.025640
v -0.059745 0.297396 -0.016400
v -0.113937 0.345526 0.025640
v -0.113937 0.345526 -0.016400
v -0.072668 0.344279 0.025640
v -0.072668 0.344279 -0.016400
v -0.105251 0.395112 0.018325
v -0.105251 0.395112 -0.009085
v -0.078343 0.394299 0.018325
v -0.078343 0.394299 -0.009085
v 0.083461 0.526980 0.019114
v 0.083461 0.526980 -0.009874
v 0.112435 0.527876 -0.009874
v 0.112435 0.527876 0.019114
v -0.183365 0.489833 0.004620
v -0.131444 0.371618 0.058640
v -0.131444 0.534987 0.092026
v -0.131444 0.635955 0.004620
v -0.131444 0.534987 -0.082786
v -0.131444 0.371618 -0.049399
v -0.047434 0.444680 0.092026
v -0.047434 0.608049 0.058640
v -0.047434 0.608049 -0.049399
v -0.047434 0.444680 -0.082786
v -0.047434 0.343711 0.004620
v 0.004486 0.489833 0.004620
v -0.169337 0.516374 0.055996
v -0.169337 0.420349 0.036372
v -0.138819 0.446889 0.087748
v -0.138819 0.350863 0.004620
v -0.169337 0.420349 -0.027132
v -0.169337 0.575722 0.004620
v -0.138819 0.602263 0.055996
v -0.169337 0.516374 -0.046756
v -0.138819 0.602263 -0.046756
v -0.138819 0.446889 -0.078508
v -0.089439 0.334459 0.036372
v -0.089439 0.334459 -0.027132
v -0.089439 0.489833 0.107372
v -0.089439 0.393807 0.087748
v -0.089439 0.645207 0.036372
v -0.089439 0.585860 0.087748
v -0.089439 0.585860 -0.078508
v -0.089439 0.645207 -0.027132
v -0.089439 0.393807 -0.078508
v -0.089439 0.489833 -0.098132
v -0.040059 0.377404 0.055996
v -0.040059 0.532778 0.087748
v -0.040059 0.628803 0.004620
v -0.040059 0.532778 -0.078508
v -0.040059 0.377404 -0.046756
v -0.009541 0.463293 0.055996
v -0.009541 0.403945 0.004620
v -0.009541 0.559318 0.036372
v -0.009541 0.559318 -0.027132
v -0.009541 0.463293 -0.046756
vt 0.475202 0.717660
vt 0.475202 0.717660
vt 0.475202 0.717660
vt 0.475202 0.717660
vt 0.475202 0.717660
vt 0.475202 0.717660
vt 0.475202 0.717660
vt 0.475202 0.717660
vt 0.475202 0.717660
vt 0.475202 0.717660
vt 0.475202 0.717660
vt 0.475202 0.717660
vt 0.475202 0.717660
vt 0.475202 0.717660
vt 0.475202 0.717660
vt 0.475202 0.717660
vt 0.475202 0.717660
vt 0.475202 0.717660
vt 0.475202 0.717660
vt 0.475202 0.717660
vt 0.475202 0.717660
vt 0.475202 0.717660
vt 0.475202 0.717660
vt 0.475202 0.717660
vt 0.475202 0.717660
vt 0.475202 0.717660
vt 0.475202 0.717660
vt 0.475202 0.717660
vt 0.475202 0.717660
vt 0.475202 0.717660
vt 0.475202 0.717660
vt 0.475202 0.717660
vt 0.475202 0.717660
vt 0.475202 0.717660
vt 0.475202 0.717660
vt 0.475202 0.717660
vt 0.475202 0.717660
vt 0.475202 0.717660
vt 0.475202 0.717660
vt 0.475202 0.717660
vt 0.475202 0.717660
vt 0.475202 0.717660
vt 0.423428 0.225615
vt 0.423428 0.225615
vt 0.423428 0.225615
vt 0.423428 0.225615
vt 0.423428 0.225615
vt 0.423428 0.225615
vt 0.423428 0.225615
vt 0.423428 0.225615
vt 0.423428 0.225615
vt 0.423428 0.225615
vt 0.423428 0.225615
vt 0.423428 0.225615
vt 0.423428 0.225615
vt 0.423428 0.225615
vt 0.423428 0.225615
vt 0.423428 0.225615
vt 0.423428 0.225615
vt 0.423428 0.225615
vt 0.423428 0.225615
vt 0.423428 0.225615
vt 0.423428 0.225615
vt 0.423428 0.225615
vt 0.423428 0.225615
vt 0.423428 0.225615
vt 0.423428 0.225615
vt 0.423428 0.225615
vt 0.423428 0.225615
vt 0.423428 0.225615
vt 0.423428 0.225615
vt 0.423428 0.225615
vt 0.423428 0.225615
vt 0.423428 0.225615
vt 0.423428 0.225615
vt 0.423428 0.225615
vt 0.423428 0.225615
vt 0.423428 0.225615
vt 0.423428 0.225615
vt 0.423428 0.225615
vt 0.423428 0.225615
vt 0.423428 0.225615
vt 0.423428 0.225615
vt 0.423428 0.225615
vt 0.423428 0.225615
vt 0.423428 0.225615
vt 0.423428 0.225615
vt 0.423428 0.225615
vt 0.423428 0.225615
vt 0.423428 0.225615
vt 0.423428 0.225615
vt 0.423428 0.225615
vt 0.423428 0.225615
vt 0.423428 0.225615
vt 0.423428 0.225615
vt 0.423428 0.225615
vt 0.423428 0.225615
vt 0.423428 0.225615
vt 0.423428 0.225615
vt 0.423428 0.225615
vt 0.423428 0.225615
vt 0.423428 0.225615
vt 0.423428 0.225615
vt 0.423428 0.225615
vt 0.423428 0.225615
vt 0.423428 0.225615
vt 0.475202 0.717660
vt 0.475202 0.717660
vt 0.475202 0.717660
vt 0.475202 0.717660
vt 0.475202 0.717660
vt 0.475202 0.717660
vt 0.475202 0.717660
vt 0.475202 0.717660
vt 0.475202 0.717660
vt 0.475202 0.717660
vt 0.475202 0.717660
vt 0.475202 0.717660
vt 0.475202 0.717660
vt 0.475202 0.717660
vt 0.475202 0.717660
vt 0.475202 0.717660
vt 0.475202 0.717660
vt 0.475202 0.717660
vt 0.475202 0.717660
vt 0.475202 0.717660
vt 0.475202 0.717660
vt 0.475202 0.717660
vt 0.475202 0.717660
vt 0.475202 0.717660
vt 0.475202 0.717660
vt 0.475202 0.717660
vt 0.475202 0.717660
vt 0.475202 0.717660
vt 0.475202 0.717660
vt 0.475202 0.717660
vt 0.475202 0.717660
vt 0.475202 0.717660
vt 0.475202 0.717660
vt 0.475202 0.717660
vt 0.475202 0.717660
vt 0.475202 0.717660
vt 0.475202 0.717660
vt 0.475202 0.717660
vt 0.475202 0.717660
vt 0.475202 0.717660
vt 0.475202 0.717660
vt 0.475202 0.717660
vn -0.9547 -0.0596 0.2914
vn -0.8145 -0.4956 0.3016
vn -0.9702 0.1585 0.1830
vn -0.9702 0.1585 -0.1830
vn -0.9547 -0.0596 -0.2914
vn -0.4981 -0.7845 0.3694
vn -0.3577 -0.0154 0.9337
vn -0.4905 0.7594 0.4276
vn -0.3987 0.3986 -0.8259
vn -0.3923 -0.3650 -0.8443
vn -0.1754 -0.6444 0.7443
vn -0.1413 0.1982 0.9699
vn -0.2151 0.9766 0.0000
vn -0.1413 0.1982 -0.9699
vn -0.1754 -0.6444 -0.7443
vn 0.7293 -0.2591 0.6332
vn 0.7419 0.3038 0.5977
vn 0.8145 0.4956 -0.3016
vn 0.6949 -0.0233 -0.7188
vn 0.8253 -0.5192 -0.2220
vn 0.9702 -0.1585 -0.1831
vn 0.8788 -0.3123 -0.3607
vn 0.7293 -0.2591 -0.6332
vn 0.9547 0.0596 -0.2914
vn 0.8278 0.1123 -0.5497
vn 0.7419 0.3038 -0.5977
vn 0.9802 0.1979 0.0000
vn 0.9156 0.4021 0.0000
vn 0.8145 0.4956 0.3016
vn 0.9547 0.0596 0.2914
vn 0.8278 0.1123 0.5497
vn 0.6949 -0.0233 0.7188
vn 0.9702 -0.1585 0.1831
vn 0.8788 -0.3123 0.3607
vn 0.8253 -0.5192 0.2220
vn 0.4905 -0.7594 -0.4276
vn 0.2595 -0.6321 -0.7301
vn 0.3987 -0.3986 -0.8259
vn 0.3577 0.0154 -0.9337
vn 0.2104 0.1957 -0.9578
vn 0.3923 0.3650 -0.8443
vn 0.4981 0.7845 -0.3694
vn 0.3153 0.9490 0.0000
vn 0.4981 0.7845 0.3694
vn 0.3923 0.3650 0.8443
vn 0.2104 0.1957 0.9578
vn 0.3577 0.0154 0.9337
vn 0.3987 -0.3986 0.8259
vn 0.2595 -0.6321 0.7301
vn 0.4905 -0.7594 0.4276
vn 0.1413 -0.1982 -0.9699
vn -0.2104 -0.1957 -0.9578
vn -0.3577 -0.0154 -0.9337
vn 0.1754 0.6444 -0.7443
vn -0.2595 0.6321 -0.7301
vn -0.4905 0.7594 -0.4276
vn 0.1754 0.6444 0.7443
vn -0.2595 0.6321 0.7301
vn -0.3987 0.3986 0.8259
vn 0.1413 -0.1982 0.9699
vn -0.2104 -0.1957 0.9578
vn -0.3923 -0.3650 0.8443
vn 0.2151 -0.9766 0.0000
vn -0.3153 -0.9490 0.0000
vn -0.4981 -0.7845 -0.3694
vn -0.7419 -0.3038 -0.5977
vn -0.8278 -0.1123 -0.5497
vn -0.6949 0.0233 -0.7188
vn -0.7293 0.2591 -0.6332
vn -0.8788 0.3123 -0.3607
vn -0.8253 0.5192 -0.2220
vn -0.8253 0.5192 0.2220
vn -0.8788 0.3123 0.3607
vn -0.7293 0.2591 0.6332
vn -0.8145 -0.4956 -0.3016
vn -0.9156 -0.4021 0.0000
vn -0.9802 -0.1979 0.0000
vn -0.6949 0.0233 0.7188
vn -0.8278 -0.1123 0.5497
vn -0.7419 -0.3038 0.5977
vn -0.9775 0.2111 0.0000
vn 0.0000 0.2111 -0.9775
vn 0.9775 0.2111 0.0000
vn 0.0000 0.2111 0.9775
vn 0.0000 -1.0000 0.0000
vn 0.9999 0.0161 0.0000
vn 0.0000 0.0000 1.0000
vn -0.9999 0.0130 0.0000
vn 0.0000 0.0000 -1.0000
vn 0.9682 -0.2503 0.0000
vn -0.9619 0.2735 0.0000
vn 0.8059 -0.5920 0.0000
vn 0.8801 -0.4748 0.0000
vn -0.8059 0.5920 0.0000
vn 0.9867 -0.1628 0.0000
vn 0.8895 -0.4569 0.0000
vn -0.8671 0.4982 0.0000
vn 0.9992 -0.0396 0.0000
vn -0.9857 0.1686 0.0000
vn -0.9991 0.0417 0.0000
vn 0.9929 0.1186 0.0000
vn 0.9995 0.0309 0.0000
vn -0.9995 -0.0309 0.0000
vn -0.7425 -0.6698 0.0000
vn 0.4393 0.8984 0.0000
vn -0.4983 -0.8670 0.0000
vn 0.7160 0.6981 0.0000
vn 0.8952 0.4457 0.0000
vn -0.9028 -0.4301 0.0000
vn 0.0044 0.1452 0.9894
vn -0.9717 -0.2363 0.0000
vn 0.9640 0.2657 0.0000
vn 0.0302 0.9995 0.0000
vn 0.9936 0.1127 0.0000
vn 0.0044 0.1452 -0.9894
vn -0.9850 0.1725 0.0000
vn -0.0309 0.9995 0.0000
vn -0.9984 0.0571 0.0000
vn -0.0027 0.0878 0.9961
vn -0.0027 0.0878 -0.9961
vn 0.9702 -0.1585 -0.1830
vn 0.9702 -0.1585 0.1830
s off
f 1/1/1 14/2/1 13/3/1
f 2/4/2 14/2/2 16/5/2
f 1/1/3 13/3/3 18/6/3
f 1/1/4 18/6/4 20/7/4
f 1/1/5 20/7/5 17/8/5
f 2/4/6 16/5/6 23/9/6
f 3/10/7 15/11/7 25/12/7
f 4/13/8 19/14/8 27/15/8
f 5/16/9 21/17/9 29/18/9
f 6/19/10 22/20/10 31/21/10
f 2/4/11 23/9/11 26/22/11
f 3/10/12 25/12/12 28/23/12
f 4/13/13 27/15/13 30/24/13
f 5/16/14 29/18/14 32/25/14
f 6/19/15 31/21/15 24/26/15
f 7/27/16 33/28/16 38/29/16
f 8/30/17 34/31/17 40/32/17
f 9/33/18 35/34/18 41/35/18
f 10/36/19 36/37/19 42/38/19
f 11/39/20 37/40/20 39/41/20
f 39/41/21 42/38/21 12/42/21
f 39/41/22 37/40/22 42/38/22
f 37/40/23 10/36/23 42/38/23
f 42/38/24 41/35/24 12/42/24
f 42/38/25 36/37/25 41/35/25
f 36/37/26 9/33/26 41/35/26
f 41/35/27 40/32/27 12/42/27
f 41/35/28 35/34/28 40/32/28
f 35/34/29 8/30/29 40/32/29
f 40/32/30 38/29/30 12/42/30
f 40/32/31 34/31/31 38/29/31
f 34/31/32 7/27/32 38/29/32
f 38/29/33 39/41/33 12/42/33
f 38/29/34 33/28/34 39/41/34
f 33/28/35 11/39/35 39/41/35
f 24/26/36 37/40/36 11/39/36
f 24/26/37 31/21/37 37/40/37
f 31/21/38 10/36/38 37/40/38
f 32/25/39 36/37/39 10/36/39
f 32/25/40 29/18/40 36/37/40
f 29/18/41 9/33/41 36/37/41
f 30/24/42 35/34/42 9/33/42
f 30/24/43 27/15/43 35/34/43
f 27/15/44 8/30/44 35/34/44
f 28/23/45 34/31/45 8/30/45
f 28/23/46 25/12/46 34/31/46
f 25/12/47 7/27/47 34/31/47
f 26/22/48 33/28/48 7/27/48
f 26/22/49 23/9/49 33/28/49
f 23/9/50 11/39/50 33/28/50
f 31/21/51 32/25/51 10/36/51
f 31/21/52 22/20/52 32/25/52
f 22/20/53 5/16/53 32/25/53
f 29/18/54 30/24/54 9/33/54
f 29/18/55 21/17/55 30/24/55
f 21/17/56 4/13/56 30/24/56
f 27/15/57 28/23/57 8/30/57
f 27/15/58 19/14/58 28/23/58
f 19/14/59 3/10/59 28/23/59
f 25/12/60 26/22/60 7/27/60
f 25/12/61 15/11/61 26/22/61
f 15/11/62 2/4/62 26/22/62
f 23/9/63 24/26/63 11/39/63
f 23/9/64 16/5/64 24/26/64
f 16/5/65 6/19/65 24/26/65
f 17/8/66 22/20/66 6/19/66
f 17/8/67 20/7/67 22/20/67
f 20/7/68 5/16/68 22/20/68
f 20/7/69 21/17/69 5/16/69
f 20/7/70 18/6/70 21/17/70
f 18/6/71 4/13/71 21/17/71
f 18/6/72 19/14/72 4/13/72
f 18/6/73 13/3/73 19/14/73
f 13/3/74 3/10/74 19/14/74
f 16/5/75 17/8/75 6/19/75
f 16/5/76 14/2/76 17/8/76
f 14/2/77 1/1/77 17/8/77
f 13/3/78 15/11/78 3/10/78
f 13/3/79 14/2/79 15/11/79
f 14/2/80 2/4/80 15/11/80
f 43/43/81 44/44/81 46/45/81 45/46/81
f 45/46/82 46/45/82 50/47/82 49/48/82
f 49/48/83 50/47/83 48/49/83 47/50/83
f 47/50/84 48/49/84 44/44/84 43/43/84
f 45/46/85 49/48/85 47/50/85 43/43/85
f 48/49/86 50/47/86 53/51/86 54/52/86
f 51/53/87 54/52/87 58/54/87 55/55/87
f 46/45/88 44/44/88 51/53/88 52/56/88
f 44/44/87 48/49/87 54/52/87 51/53/87
f 50/47/89 46/45/89 52/56/89 53/51/89
f 57/57/89 56/58/89 60/59/89 61/60/89
f 53/51/89 52/56/89 56/58/89 57/57/89
f 54/52/90 53/51/90 57/57/90 58/54/90
f 52/56/91 51/53/91 55/55/91 56/58/91
f 62/61/92 61/60/92 65/62/92 66/63/92
f 58/54/93 57/57/93 61/60/93 62/61/93
f 60/59/89 56/58/89 84/64/89 86/65/89
f 55/55/87 58/54/87 62/61/87 59/66/87
f 63/67/87 66/63/87 70/68/87 67/69/87
f 60/59/94 59/66/94 63/67/94 64/70/94
f 59/66/87 62/61/87 66/63/87 63/67/87
f 61/60/89 60/59/89 64/70/89 65/62/89
f 70/68/95 69/71/95 73/72/95 74/73/95
f 65/62/89 64/70/89 68/74/89 69/71/89
f 66/63/96 65/62/96 69/71/96 70/68/96
f 64/70/97 63/67/97 67/69/97 68/74/97
f 74/73/98 73/72/98 77/75/98 78/76/98
f 68/74/99 67/69/99 71/77/99 72/78/99
f 67/69/87 70/68/87 74/73/87 71/77/87
f 69/71/89 68/74/89 72/78/89 73/72/89
f 75/79/87 78/76/87 82/80/87 79/81/87
f 72/78/100 71/77/100 75/79/100 76/82/100
f 71/77/87 74/73/87 78/76/87 75/79/87
f 73/72/89 72/78/89 76/82/89 77/75/89
f 82/80/101 81/83/101 105/84/101 106/85/101
f 77/75/89 76/82/89 80/86/89 81/83/89
f 78/76/102 77/75/102 81/83/102 82/80/102
f 76/82/103 75/79/103 79/81/103 80/86/103
f 84/64/104 83/87/104 87/88/104 88/89/104
f 59/66/105 60/59/105 86/65/105 85/90/105
f 55/55/87 59/66/87 85/90/87 83/87/87
f 56/58/106 55/55/106 83/87/106 84/64/106
f 87/88/87 89/91/87 93/92/87 91/93/87
f 83/87/87 85/90/87 89/91/87 87/88/87
f 85/90/107 86/65/107 90/94/107 89/91/107
f 86/65/89 84/64/89 88/89/89 90/94/89
f 94/95/89 92/96/89 96/97/89 98/98/89
f 89/91/108 90/94/108 94/95/108 93/92/108
f 90/94/89 88/89/89 92/96/89 94/95/89
f 88/89/109 87/88/109 91/93/109 92/96/109
f 95/99/110 97/100/110 101/101/110 99/102/110
f 92/96/111 91/93/111 95/99/111 96/97/111
f 91/93/87 93/92/87 97/100/87 95/99/87
f 93/92/112 94/95/112 98/98/112 97/100/112
f 100/103/113 99/102/113 101/101/113 102/104/113
f 97/100/114 98/98/114 102/104/114 101/101/114
f 98/98/115 96/97/115 100/103/115 102/104/115
f 96/97/116 95/99/116 99/102/116 100/103/116
f 105/84/117 104/105/117 103/106/117 106/85/117
f 80/86/118 79/81/118 103/106/118 104/105/118
f 79/81/119 82/80/119 106/85/119 103/106/119
f 81/83/120 80/86/120 104/105/120 105/84/120
f 107/107/1 120/108/1 119/109/1
f 108/110/2 120/108/2 122/111/2
f 107/107/3 119/109/3 124/112/3
f 107/107/4 124/112/4 126/113/4
f 107/107/5 126/113/5 123/114/5
f 108/110/6 122/111/6 129/115/6
f 109/116/7 121/117/7 131/118/7
f 110/119/8 125/120/8 133/121/8
f 111/122/9 127/123/9 135/124/9
f 112/125/10 128/126/10 137/127/10
f 108/110/11 129/115/11 132/128/11
f 109/116/12 131/118/12 134/129/12
f 110/119/13 133/121/13 136/130/13
f 111/122/14 135/124/14 138/131/14
f 112/125/15 137/127/15 130/132/15
f 113/133/16 139/134/16 144/135/16
f 114/136/17 140/137/17 146/138/17
f 115/139/18 141/140/18 147/141/18
f 116/142/19 142/143/19 148/144/19
f 117/145/20 143/146/20 145/147/20
f 145/147/121 148/144/121 118/148/121
f 145/147/22 143/146/22 148/144/22
f 143/146/23 116/142/23 148/144/23
f 148/144/24 147/141/24 118/148/24
f 148/144/25 142/143/25 147/141/25
f 142/143/26 115/139/26 147/141/26
f 147/141/27 146/138/27 118/148/27
f 147/141/28 141/140/28 146/138/28
f 141/140/29 114/136/29 146/138/29
f 146/138/30 144/135/30 118/148/30
f 146/138/31 140/137/31 144/135/31
f 140/137/32 113/133/32 144/135/32
f 144/135/122 145/147/122 118/148/122
f 144/135/34 139/134/34 145/147/34
f 139/134/35 117/145/35 145/147/35
f 130/132/36 143/146/36 117/145/36
f 130/132/37 137/127/37 143/146/37
f 137/127/38 116/142/38 143/146/38
f 138/131/39 142/143/39 116/142/39
f 138/131/40 135/124/40 142/143/40
f 135/124/41 115/139/41 142/143/41
f 136/130/42 141/140/42 115/139/42
f 136/130/43 133/121/43 141/140/43
f 133/121/44 114/136/44 141/140/44
f 134/129/45 140/137/45 114/136/45
f 134/129/46 131/118/46 140/137/46
f 131/118/47 113/133/47 140/137/47
f 132/128/48 139/134/48 113/133/48
f 132/128/49 129/115/49 139/134/49
f 129/115/50 117/145/50 139/134/50
f 137/127/51 138/131/51 116/142/51
f 137/127/52 128/126/52 138/131/52
f 128/126/53 111/122/53 138/131/53
f 135/124/54 136/130/54 115/139/54
f 135/124/55 127/123/55 136/130/55
f 127/123/56 110/119/56 136/130/56
f 133/121/57 134/129/57 114/136/57
f 133/121/58 125/120/58 134/129/58
f 125/120/59 109/116/59 134/129/59
f 131/118/60 132/128/60 113/133/60
f 131/118/61 121/117/61 132/128/61
f 121/117/62 108/110/62 132/128/62
f 129/115/63 130/132/63 117/145/63
f 129/115/64 122/111/64 130/132/64
f 122/111/65 112/125/65 130/132/65
f 123/114/66 128/126/66 112/125/66
f 123/114/67 126/113/67 128/126/67
f 126/113/68 111/122/68 128/126/68
f 126/113/69 127/123/69 111/122/69
f 126/113/70 124/112/70 127/123/70
f 124/112/71 110/119/71 127/123/71
f 124/112/72 125/120/72 110/119/72
f 124/112/73 119/109/73 125/120/73
f 119/109/74 109/116/74 125/120/74
f 122/111/75 123/114/75 112/125/75
f 122/111/76 120/108/76 123/114/76
f 120/108/77 107/107/77 123/114/77
f 119/109/78 121/117/78 109/116/78
f 119/109/79 120/108/79 121/117/79
f 120/108/80 108/110/80 121/117/80
